# xmcd
# 
# Track frame offsets:
#     150
#     27486
#     47786
#     64743
#     93742
#     115684
#     137097
#     162426
# 
# Disc length: 2677
# 
# Revision: 0
# Processed by: cddbd v1.5.2PL0 Copyright (c) Steve Scherf et al.
# Submitted via: BonkEnc v1.0.15
# 
DISCID=6e0a7308
DTITLE=Eudaimony - Futile
DYEAR=2013
DGENRE=Black Metal
TTITLE0=Ways To Indifference
TTITLE1=Mute
TTITLE2=A Window In The Attic
TTITLE3=Futile
TTITLE4=Portraits
TTITLE5=Cold
TTITLE6=Godforsaken
TTITLE7=December's Hearse
EXTD=
EXTT0=
EXTT1=
EXTT2=
EXTT3=
EXTT4=
EXTT5=
EXTT6=
EXTT7=
PLAYORDER=
